<?xml version="1.0" encoding="utf-8" standalone="no"?>
<!DOCTYPE svg PUBLIC "-//W3C//DTD SVG 1.1//EN"
  "http://www.w3.org/Graphics/SVG/1.1/DTD/svg11.dtd">
<svg xmlns:xlink="http://www.w3.org/1999/xlink" width="247.285547pt" height="121.05pt" viewBox="0 0 247.285547 121.05" xmlns="http://www.w3.org/2000/svg" version="1.1">
 <metadata>
  <rdf:RDF xmlns:dc="http://purl.org/dc/elements/1.1/" xmlns:cc="http://creativecommons.org/ns#" xmlns:rdf="http://www.w3.org/1999/02/22-rdf-syntax-ns#">
   <cc:Work>
    <dc:type rdf:resource="http://purl.org/dc/dcmitype/StillImage"/>
    <dc:date>2023-11-24T17:46:54.597759</dc:date>
    <dc:format>image/svg+xml</dc:format>
    <dc:creator>
     <cc:Agent>
      <dc:title>Matplotlib v3.8.2, https://matplotlib.org/</dc:title>
     </cc:Agent>
    </dc:creator>
   </cc:Work>
  </rdf:RDF>
 </metadata>
 <defs>
  <style type="text/css">*{stroke-linejoin: round; stroke-linecap: butt}</style>
 </defs>
 <g id="figure_1">
  <g id="patch_1">
   <path d="M 0 121.05 
L 247.285547 121.05 
L 247.285547 0 
L 0 0 
L 0 121.05 
z
" style="fill: none"/>
  </g>
  <g id="axes_1">
   <g id="patch_2">
    <path d="M 152.605547 31.095 
C 153.751224 31.095 154.850132 30.639818 155.660248 29.829701 
C 156.470364 29.019585 156.925547 27.920677 156.925547 26.775 
C 156.925547 25.629323 156.470364 24.530415 155.660248 23.720299 
C 154.850132 22.910182 153.751224 22.455 152.605547 22.455 
C 151.459869 22.455 150.360962 22.910182 149.550846 23.720299 
C 148.740729 24.530415 148.285547 25.629323 148.285547 26.775 
C 148.285547 27.920677 148.740729 29.019585 149.550846 29.829701 
C 150.360962 30.639818 151.459869 31.095 152.605547 31.095 
L 152.605547 31.095 
z
" clip-path="url(#p3250e4fe87)" style="fill: none; stroke: #000000; stroke-width: 2; stroke-linejoin: miter"/>
   </g>
   <g id="patch_3">
    <path d="M 64.585547 98.595 
C 65.731224 98.595 66.830132 98.139818 67.640248 97.329701 
C 68.450364 96.519585 68.905547 95.420677 68.905547 94.275 
C 68.905547 93.129323 68.450364 92.030415 67.640248 91.220299 
C 66.830132 90.410182 65.731224 89.955 64.585547 89.955 
C 63.439869 89.955 62.340962 90.410182 61.530846 91.220299 
C 60.720729 92.030415 60.265547 93.129323 60.265547 94.275 
C 60.265547 95.420677 60.720729 96.519585 61.530846 97.329701 
C 62.340962 98.139818 63.439869 98.595 64.585547 98.595 
L 64.585547 98.595 
z
" clip-path="url(#p3250e4fe87)" style="fill: none; stroke: #000000; stroke-width: 2; stroke-linejoin: miter"/>
   </g>
   <g id="line2d_1">
    <path d="M 177.085547 71.415 
L 196.628404 71.348878 
L 198.685547 71.055 
L 200.74269 70.52602 
L 202.799833 69.761939 
L 204.856975 68.762755 
L 206.914118 67.528469 
L 208.971261 66.059082 
L 211.028404 64.354592 
L 213.599833 61.893367 
L 216.171261 59.064796 
L 218.74269 55.868878 
L 220.285547 53.775 
L 220.285547 53.775 
L 217.714118 50.358673 
L 215.14269 47.309694 
L 212.571261 44.628061 
L 209.999833 42.313776 
L 207.94269 40.726837 
L 205.885547 39.375 
L 203.828404 38.258265 
L 201.771261 37.376633 
L 199.714118 36.730102 
L 197.656975 36.318673 
L 195.599833 36.142347 
L 195.085547 36.135 
L 177.085547 36.135 
L 177.085547 36.135 
L 179.072747 38.295 
L 180.800747 40.455 
L 182.269547 42.615 
L 183.479147 44.775 
L 184.429547 46.935 
L 185.120747 49.095 
L 185.552747 51.255 
L 185.725547 53.415 
L 185.639147 55.575 
L 185.293547 57.735 
L 184.688747 59.895 
L 183.824747 62.055 
L 182.701547 64.215 
L 181.319147 66.375 
L 179.677547 68.535 
L 177.776747 70.695 
L 177.085547 71.415 
L 177.085547 71.415 
" clip-path="url(#p3250e4fe87)" style="fill: none; stroke: #000000; stroke-width: 2; stroke-linecap: round"/>
   </g>
   <g id="line2d_2">
    <path d="M 164.485547 62.775 
L 183.479147 62.775 
" clip-path="url(#p3250e4fe87)" style="fill: none; stroke: #000000; stroke-width: 2; stroke-linecap: round"/>
   </g>
   <g id="line2d_3">
    <path d="M 164.485547 44.775 
L 183.479147 44.775 
" clip-path="url(#p3250e4fe87)" style="fill: none; stroke: #000000; stroke-width: 2; stroke-linecap: round"/>
   </g>
   <g id="line2d_4">
    <path d="M 220.285547 53.775 
L 232.885547 53.775 
" clip-path="url(#p3250e4fe87)" style="fill: none; stroke: #000000; stroke-width: 2; stroke-linecap: round"/>
   </g>
   <g id="line2d_5">
    <path d="M 130.285547 44.775 
L 131.438811 44.738017 
L 132.587336 44.62722 
L 133.726402 44.443065 
L 134.851329 44.186308 
L 135.957495 43.858003 
L 137.040353 43.459502 
L 138.095454 42.99244 
L 139.118463 42.458737 
L 140.105175 41.860586 
L 141.051536 41.200445 
L 141.953658 40.481027 
L 142.807833 39.705288 
L 143.610551 38.876416 
L 144.358514 37.997816 
L 145.048647 37.0731 
L 145.678117 36.106066 
L 146.244334 35.100689 
L 146.744974 34.0611 
L 147.177978 32.991571 
L 147.541568 31.896497 
L 147.834249 30.780377 
L 148.054819 29.647798 
L 148.202371 28.503414 
L 148.276299 27.351928 
L 148.276299 26.198072 
L 148.202371 25.046586 
L 148.054819 23.902202 
L 147.834249 22.769623 
L 147.541568 21.653503 
L 147.177978 20.558429 
L 146.744974 19.4889 
L 146.244334 18.449311 
L 145.678117 17.443934 
L 145.048647 16.4769 
L 144.358514 15.552184 
L 143.610551 14.673584 
L 142.807833 13.844712 
L 141.953658 13.068973 
L 141.051536 12.349555 
L 140.105175 11.689414 
L 139.118463 11.091263 
L 138.095454 10.55756 
L 137.040353 10.090498 
L 135.957495 9.691997 
L 134.851329 9.363692 
L 133.726402 9.106935 
L 132.587336 8.92278 
L 131.438811 8.811983 
L 130.285547 8.775 
L 130.285547 8.775 
L 106.885547 8.775 
L 106.885547 26.775 
L 106.885547 44.775 
L 130.285547 44.775 
" clip-path="url(#p3250e4fe87)" style="fill: none; stroke: #000000; stroke-width: 2; stroke-linecap: round"/>
   </g>
   <g id="line2d_6">
    <path d="M 94.285547 35.775 
L 106.885547 35.775 
" clip-path="url(#p3250e4fe87)" style="fill: none; stroke: #000000; stroke-width: 2; stroke-linecap: round"/>
   </g>
   <g id="line2d_7">
    <path d="M 94.285547 17.775 
L 106.885547 17.775 
" clip-path="url(#p3250e4fe87)" style="fill: none; stroke: #000000; stroke-width: 2; stroke-linecap: round"/>
   </g>
   <g id="line2d_8">
    <path d="M 156.925547 26.775 
L 160.885547 26.775 
" clip-path="url(#p3250e4fe87)" style="fill: none; stroke: #000000; stroke-width: 2; stroke-linecap: round"/>
   </g>
   <g id="line2d_9">
    <path d="M 164.485547 44.775 
L 160.885547 44.775 
L 160.885547 26.775 
" clip-path="url(#p3250e4fe87)" style="fill: none; stroke: #000000; stroke-width: 2; stroke-linecap: round"/>
   </g>
   <g id="line2d_10">
    <path d="M 105.085547 98.415 
L 124.628404 98.348878 
L 126.685547 98.055 
L 128.74269 97.52602 
L 130.799833 96.761939 
L 132.856975 95.762755 
L 134.914118 94.528469 
L 136.971261 93.059082 
L 139.028404 91.354592 
L 141.599833 88.893367 
L 144.171261 86.064796 
L 146.74269 82.868878 
L 148.285547 80.775 
L 148.285547 80.775 
L 145.714118 77.358673 
L 143.14269 74.309694 
L 140.571261 71.628061 
L 137.999833 69.313776 
L 135.94269 67.726837 
L 133.885547 66.375 
L 131.828404 65.258265 
L 129.771261 64.376633 
L 127.714118 63.730102 
L 125.656975 63.318673 
L 123.599833 63.142347 
L 123.085547 63.135 
L 105.085547 63.135 
L 105.085547 63.135 
L 107.072747 65.295 
L 108.800747 67.455 
L 110.269547 69.615 
L 111.479147 71.775 
L 112.429547 73.935 
L 113.120747 76.095 
L 113.552747 78.255 
L 113.725547 80.415 
L 113.639147 82.575 
L 113.293547 84.735 
L 112.688747 86.895 
L 111.824747 89.055 
L 110.701547 91.215 
L 109.319147 93.375 
L 107.677547 95.535 
L 105.776747 97.695 
L 105.085547 98.415 
L 105.085547 98.415 
" clip-path="url(#p3250e4fe87)" style="fill: none; stroke: #000000; stroke-width: 2; stroke-linecap: round"/>
   </g>
   <g id="line2d_11">
    <path d="M 92.485547 89.775 
L 111.479147 89.775 
" clip-path="url(#p3250e4fe87)" style="fill: none; stroke: #000000; stroke-width: 2; stroke-linecap: round"/>
   </g>
   <g id="line2d_12">
    <path d="M 92.485547 71.775 
L 111.479147 71.775 
" clip-path="url(#p3250e4fe87)" style="fill: none; stroke: #000000; stroke-width: 2; stroke-linecap: round"/>
   </g>
   <g id="line2d_13">
    <path d="M 148.285547 80.775 
L 160.885547 80.775 
" clip-path="url(#p3250e4fe87)" style="fill: none; stroke: #000000; stroke-width: 2; stroke-linecap: round"/>
   </g>
   <g id="line2d_14">
    <path d="M 16.885547 94.275 
L 36.865547 94.275 
M 68.905547 94.275 
L 88.885547 94.275 
" clip-path="url(#p3250e4fe87)" style="fill: none; stroke: #000000; stroke-width: 2; stroke-linecap: round"/>
   </g>
   <g id="line2d_15">
    <path d="M 36.865547 76.275 
L 60.265547 94.275 
L 36.865547 112.275 
L 36.865547 76.275 
" clip-path="url(#p3250e4fe87)" style="fill: none; stroke: #000000; stroke-width: 2; stroke-linecap: round"/>
   </g>
   <g id="line2d_16">
    <path d="M 92.485547 89.775 
L 88.885547 89.775 
L 88.885547 94.275 
" clip-path="url(#p3250e4fe87)" style="fill: none; stroke: #000000; stroke-width: 2; stroke-linecap: round"/>
   </g>
   <g id="line2d_17">
    <path d="M 164.485547 62.775 
L 160.885547 62.775 
L 160.885547 80.775 
" clip-path="url(#p3250e4fe87)" style="fill: none; stroke: #000000; stroke-width: 2; stroke-linecap: round"/>
   </g>
   <g id="text_1">
    <!-- $f$ -->
    <g transform="translate(236.485547 57.224219) scale(0.125 -0.125)">
     <defs>
      <path id="DejaVuSans-Oblique-66" d="M 3059 4863 
L 2969 4384 
L 2419 4384 
Q 2106 4384 1964 4261 
Q 1822 4138 1753 3809 
L 1691 3500 
L 2638 3500 
L 2553 3053 
L 1606 3053 
L 1013 0 
L 434 0 
L 1031 3053 
L 481 3053 
L 563 3500 
L 1113 3500 
L 1159 3744 
Q 1278 4363 1576 4613 
Q 1875 4863 2516 4863 
L 3059 4863 
z
" transform="scale(0.015625)"/>
     </defs>
     <use xlink:href="#DejaVuSans-Oblique-66" transform="translate(0 0.015625)"/>
    </g>
   </g>
   <g id="text_2">
    <!-- F -->
    <g transform="translate(83.496094 21.224219) scale(0.125 -0.125)">
     <defs>
      <path id="DejaVuSans-46" d="M 628 4666 
L 3309 4666 
L 3309 4134 
L 1259 4134 
L 1259 2759 
L 3109 2759 
L 3109 2228 
L 1259 2228 
L 1259 0 
L 628 0 
L 628 4666 
z
" transform="scale(0.015625)"/>
     </defs>
     <use xlink:href="#DejaVuSans-46"/>
    </g>
   </g>
   <g id="text_3">
    <!-- G -->
    <g transform="translate(81 39.224219) scale(0.125 -0.125)">
     <defs>
      <path id="DejaVuSans-47" d="M 3809 666 
L 3809 1919 
L 2778 1919 
L 2778 2438 
L 4434 2438 
L 4434 434 
Q 4069 175 3628 42 
Q 3188 -91 2688 -91 
Q 1594 -91 976 548 
Q 359 1188 359 2328 
Q 359 3472 976 4111 
Q 1594 4750 2688 4750 
Q 3144 4750 3555 4637 
Q 3966 4525 4313 4306 
L 4313 3634 
Q 3963 3931 3569 4081 
Q 3175 4231 2741 4231 
Q 1884 4231 1454 3753 
Q 1025 3275 1025 2328 
Q 1025 1384 1454 906 
Q 1884 428 2741 428 
Q 3075 428 3337 486 
Q 3600 544 3809 666 
z
" transform="scale(0.015625)"/>
     </defs>
     <use xlink:href="#DejaVuSans-47"/>
    </g>
   </g>
   <g id="text_4">
    <!-- F -->
    <g transform="translate(81.696094 75.224219) scale(0.125 -0.125)">
     <use xlink:href="#DejaVuSans-46"/>
    </g>
   </g>
   <g id="text_5">
    <!-- G -->
    <g transform="translate(3.6 97.724219) scale(0.125 -0.125)">
     <use xlink:href="#DejaVuSans-47"/>
    </g>
   </g>
  </g>
 </g>
 <defs>
  <clipPath id="p3250e4fe87">
   <rect x="6.085547" y="3.6" width="237.6" height="113.85"/>
  </clipPath>
 </defs>
</svg>
