<?xml version="1.0" encoding="utf-8" standalone="no"?>
<!DOCTYPE svg PUBLIC "-//W3C//DTD SVG 1.1//EN"
  "http://www.w3.org/Graphics/SVG/1.1/DTD/svg11.dtd">
<svg xmlns:xlink="http://www.w3.org/1999/xlink" width="167.339844pt" height="106.2pt" viewBox="0 0 167.339844 106.2" xmlns="http://www.w3.org/2000/svg" version="1.1">
 <metadata>
  <rdf:RDF xmlns:dc="http://purl.org/dc/elements/1.1/" xmlns:cc="http://creativecommons.org/ns#" xmlns:rdf="http://www.w3.org/1999/02/22-rdf-syntax-ns#">
   <cc:Work>
    <dc:type rdf:resource="http://purl.org/dc/dcmitype/StillImage"/>
    <dc:date>2023-11-24T16:01:24.876776</dc:date>
    <dc:format>image/svg+xml</dc:format>
    <dc:creator>
     <cc:Agent>
      <dc:title>Matplotlib v3.8.0, https://matplotlib.org/</dc:title>
     </cc:Agent>
    </dc:creator>
   </cc:Work>
  </rdf:RDF>
 </metadata>
 <defs>
  <style type="text/css">*{stroke-linejoin: round; stroke-linecap: butt}</style>
 </defs>
 <g id="figure_1">
  <g id="patch_1">
   <path d="M 0 106.2 
L 167.339844 106.2 
L 167.339844 0 
L 0 0 
L 0 106.2 
z
" style="fill: none"/>
  </g>
  <g id="axes_1">
   <g id="line2d_1">
    <path d="M 99.839844 70.74 
L 119.382701 70.673878 
L 121.439844 70.38 
L 123.496987 69.85102 
L 125.554129 69.086939 
L 127.611272 68.087755 
L 129.668415 66.853469 
L 131.725558 65.384082 
L 133.782701 63.679592 
L 136.354129 61.218367 
L 138.925558 58.389796 
L 141.496987 55.193878 
L 143.039844 53.1 
L 143.039844 53.1 
L 140.468415 49.683673 
L 137.896987 46.634694 
L 135.325558 43.953061 
L 132.754129 41.638776 
L 130.696987 40.051837 
L 128.639844 38.7 
L 126.582701 37.583265 
L 124.525558 36.701633 
L 122.468415 36.055102 
L 120.411272 35.643673 
L 118.354129 35.467347 
L 117.839844 35.46 
L 99.839844 35.46 
L 99.839844 35.46 
L 101.827044 37.62 
L 103.555044 39.78 
L 105.023844 41.94 
L 106.233444 44.1 
L 107.183844 46.26 
L 107.875044 48.42 
L 108.307044 50.58 
L 108.479844 52.74 
L 108.393444 54.9 
L 108.047844 57.06 
L 107.443044 59.22 
L 106.579044 61.38 
L 105.455844 63.54 
L 104.073444 65.7 
L 102.431844 67.86 
L 100.531044 70.02 
L 99.839844 70.74 
L 99.839844 70.74 
" clip-path="url(#pd5bfa70825)" style="fill: none; stroke: #000000; stroke-width: 2; stroke-linecap: round"/>
   </g>
   <g id="line2d_2">
    <path d="M 87.239844 62.1 
L 106.233444 62.1 
" clip-path="url(#pd5bfa70825)" style="fill: none; stroke: #000000; stroke-width: 2; stroke-linecap: round"/>
   </g>
   <g id="line2d_3">
    <path d="M 87.239844 44.1 
L 106.233444 44.1 
" clip-path="url(#pd5bfa70825)" style="fill: none; stroke: #000000; stroke-width: 2; stroke-linecap: round"/>
   </g>
   <g id="line2d_4">
    <path d="M 143.039844 53.1 
L 155.639844 53.1 
" clip-path="url(#pd5bfa70825)" style="fill: none; stroke: #000000; stroke-width: 2; stroke-linecap: round"/>
   </g>
   <g id="line2d_5">
    <path d="M 53.039844 44.1 
L 54.193108 44.063017 
L 55.341633 43.95222 
L 56.480699 43.768065 
L 57.605626 43.511308 
L 58.711792 43.183003 
L 59.79465 42.784502 
L 60.849751 42.31744 
L 61.87276 41.783737 
L 62.859472 41.185586 
L 63.805833 40.525445 
L 64.707955 39.806027 
L 65.56213 39.030288 
L 66.364848 38.201416 
L 67.11281 37.322816 
L 67.802944 36.3981 
L 68.432413 35.431066 
L 68.998631 34.425689 
L 69.499271 33.3861 
L 69.932275 32.316571 
L 70.295865 31.221497 
L 70.588546 30.105377 
L 70.809116 28.972798 
L 70.956668 27.828414 
L 71.030596 26.676928 
L 71.030596 25.523072 
L 70.956668 24.371586 
L 70.809116 23.227202 
L 70.588546 22.094623 
L 70.295865 20.978503 
L 69.932275 19.883429 
L 69.499271 18.8139 
L 68.998631 17.774311 
L 68.432413 16.768934 
L 67.802944 15.8019 
L 67.11281 14.877184 
L 66.364848 13.998584 
L 65.56213 13.169712 
L 64.707955 12.393973 
L 63.805833 11.674555 
L 62.859472 11.014414 
L 61.87276 10.416263 
L 60.849751 9.88256 
L 59.79465 9.415498 
L 58.711792 9.016997 
L 57.605626 8.688692 
L 56.480699 8.431935 
L 55.341633 8.24778 
L 54.193108 8.136983 
L 53.039844 8.1 
L 53.039844 8.1 
L 29.639844 8.1 
L 29.639844 26.1 
L 29.639844 44.1 
L 53.039844 44.1 
" clip-path="url(#pd5bfa70825)" style="fill: none; stroke: #000000; stroke-width: 2; stroke-linecap: round"/>
   </g>
   <g id="line2d_6">
    <path d="M 17.039844 35.1 
L 29.639844 35.1 
" clip-path="url(#pd5bfa70825)" style="fill: none; stroke: #000000; stroke-width: 2; stroke-linecap: round"/>
   </g>
   <g id="line2d_7">
    <path d="M 17.039844 17.1 
L 29.639844 17.1 
" clip-path="url(#pd5bfa70825)" style="fill: none; stroke: #000000; stroke-width: 2; stroke-linecap: round"/>
   </g>
   <g id="line2d_8">
    <path d="M 71.039844 26.1 
L 83.639844 26.1 
" clip-path="url(#pd5bfa70825)" style="fill: none; stroke: #000000; stroke-width: 2; stroke-linecap: round"/>
   </g>
   <g id="line2d_9">
    <path d="M 87.239844 44.1 
L 83.639844 44.1 
L 83.639844 26.1 
" clip-path="url(#pd5bfa70825)" style="fill: none; stroke: #000000; stroke-width: 2; stroke-linecap: round"/>
   </g>
   <g id="line2d_10">
    <path d="M 53.039844 98.1 
L 54.193108 98.063017 
L 55.341633 97.95222 
L 56.480699 97.768065 
L 57.605626 97.511308 
L 58.711792 97.183003 
L 59.79465 96.784502 
L 60.849751 96.31744 
L 61.87276 95.783737 
L 62.859472 95.185586 
L 63.805833 94.525445 
L 64.707955 93.806027 
L 65.56213 93.030288 
L 66.364848 92.201416 
L 67.11281 91.322816 
L 67.802944 90.3981 
L 68.432413 89.431066 
L 68.998631 88.425689 
L 69.499271 87.3861 
L 69.932275 86.316571 
L 70.295865 85.221497 
L 70.588546 84.105377 
L 70.809116 82.972798 
L 70.956668 81.828414 
L 71.030596 80.676928 
L 71.030596 79.523072 
L 70.956668 78.371586 
L 70.809116 77.227202 
L 70.588546 76.094623 
L 70.295865 74.978503 
L 69.932275 73.883429 
L 69.499271 72.8139 
L 68.998631 71.774311 
L 68.432413 70.768934 
L 67.802944 69.8019 
L 67.11281 68.877184 
L 66.364848 67.998584 
L 65.56213 67.169712 
L 64.707955 66.393973 
L 63.805833 65.674555 
L 62.859472 65.014414 
L 61.87276 64.416263 
L 60.849751 63.88256 
L 59.79465 63.415498 
L 58.711792 63.016997 
L 57.605626 62.688692 
L 56.480699 62.431935 
L 55.341633 62.24778 
L 54.193108 62.136983 
L 53.039844 62.1 
L 53.039844 62.1 
L 29.639844 62.1 
L 29.639844 80.1 
L 29.639844 98.1 
L 53.039844 98.1 
" clip-path="url(#pd5bfa70825)" style="fill: none; stroke: #000000; stroke-width: 2; stroke-linecap: round"/>
   </g>
   <g id="line2d_11">
    <path d="M 17.039844 89.1 
L 29.639844 89.1 
" clip-path="url(#pd5bfa70825)" style="fill: none; stroke: #000000; stroke-width: 2; stroke-linecap: round"/>
   </g>
   <g id="line2d_12">
    <path d="M 17.039844 71.1 
L 29.639844 71.1 
" clip-path="url(#pd5bfa70825)" style="fill: none; stroke: #000000; stroke-width: 2; stroke-linecap: round"/>
   </g>
   <g id="line2d_13">
    <path d="M 71.039844 80.1 
L 83.639844 80.1 
" clip-path="url(#pd5bfa70825)" style="fill: none; stroke: #000000; stroke-width: 2; stroke-linecap: round"/>
   </g>
   <g id="line2d_14">
    <path d="M 87.239844 62.1 
L 83.639844 62.1 
L 83.639844 80.1 
" clip-path="url(#pd5bfa70825)" style="fill: none; stroke: #000000; stroke-width: 2; stroke-linecap: round"/>
   </g>
   <g id="text_1">
    <!-- $f$ -->
    <g transform="translate(159.239844 56.549219) scale(0.125 -0.125)">
     <defs>
      <path id="DejaVuSans-Oblique-66" d="M 3059 4863 
L 2969 4384 
L 2419 4384 
Q 2106 4384 1964 4261 
Q 1822 4138 1753 3809 
L 1691 3500 
L 2638 3500 
L 2553 3053 
L 1606 3053 
L 1013 0 
L 434 0 
L 1031 3053 
L 481 3053 
L 563 3500 
L 1113 3500 
L 1159 3744 
Q 1278 4363 1576 4613 
Q 1875 4863 2516 4863 
L 3059 4863 
z
" transform="scale(0.015625)"/>
     </defs>
     <use xlink:href="#DejaVuSans-Oblique-66" transform="translate(0 0.015625)"/>
    </g>
   </g>
   <g id="text_2">
    <!-- P -->
    <g transform="translate(5.902734 20.549219) scale(0.125 -0.125)">
     <defs>
      <path id="DejaVuSans-50" d="M 1259 4147 
L 1259 2394 
L 2053 2394 
Q 2494 2394 2734 2622 
Q 2975 2850 2975 3272 
Q 2975 3691 2734 3919 
Q 2494 4147 2053 4147 
L 1259 4147 
z
M 628 4666 
L 2053 4666 
Q 2838 4666 3239 4311 
Q 3641 3956 3641 3272 
Q 3641 2581 3239 2228 
Q 2838 1875 2053 1875 
L 1259 1875 
L 1259 0 
L 628 0 
L 628 4666 
z
" transform="scale(0.015625)"/>
     </defs>
     <use xlink:href="#DejaVuSans-50"/>
    </g>
   </g>
   <g id="text_3">
    <!-- R -->
    <g transform="translate(4.754297 38.549219) scale(0.125 -0.125)">
     <defs>
      <path id="DejaVuSans-52" d="M 2841 2188 
Q 3044 2119 3236 1894 
Q 3428 1669 3622 1275 
L 4263 0 
L 3584 0 
L 2988 1197 
Q 2756 1666 2539 1819 
Q 2322 1972 1947 1972 
L 1259 1972 
L 1259 0 
L 628 0 
L 628 4666 
L 2053 4666 
Q 2853 4666 3247 4331 
Q 3641 3997 3641 3322 
Q 3641 2881 3436 2590 
Q 3231 2300 2841 2188 
z
M 1259 4147 
L 1259 2491 
L 2053 2491 
Q 2509 2491 2742 2702 
Q 2975 2913 2975 3322 
Q 2975 3731 2742 3939 
Q 2509 4147 2053 4147 
L 1259 4147 
z
" transform="scale(0.015625)"/>
     </defs>
     <use xlink:href="#DejaVuSans-52"/>
    </g>
   </g>
   <g id="text_4">
    <!-- P -->
    <g transform="translate(5.902734 74.549219) scale(0.125 -0.125)">
     <use xlink:href="#DejaVuSans-50"/>
    </g>
   </g>
   <g id="text_5">
    <!-- Q -->
    <g transform="translate(3.6 92.549219) scale(0.125 -0.125)">
     <defs>
      <path id="DejaVuSans-51" d="M 2522 4238 
Q 1834 4238 1429 3725 
Q 1025 3213 1025 2328 
Q 1025 1447 1429 934 
Q 1834 422 2522 422 
Q 3209 422 3611 934 
Q 4013 1447 4013 2328 
Q 4013 3213 3611 3725 
Q 3209 4238 2522 4238 
z
M 3406 84 
L 4238 -825 
L 3475 -825 
L 2784 -78 
Q 2681 -84 2626 -87 
Q 2572 -91 2522 -91 
Q 1538 -91 948 567 
Q 359 1225 359 2328 
Q 359 3434 948 4092 
Q 1538 4750 2522 4750 
Q 3503 4750 4090 4092 
Q 4678 3434 4678 2328 
Q 4678 1516 4351 937 
Q 4025 359 3406 84 
z
" transform="scale(0.015625)"/>
     </defs>
     <use xlink:href="#DejaVuSans-51"/>
    </g>
   </g>
  </g>
 </g>
 <defs>
  <clipPath id="pd5bfa70825">
   <rect x="10.109844" y="3.6" width="152.46" height="99"/>
  </clipPath>
 </defs>
</svg>
